<svg width="16" height="16" viewBox="0 0 16 16" fill="none" xmlns="http://www.w3.org/2000/svg">
<path d="M6.00025 0.277334C6.09787 0.395951 6.15767 0.541116 6.17193 0.694073C6.18619 0.84703 6.15426 1.00075 6.08025 1.13537C5.50209 2.19689 5.20015 3.38676 5.20222 4.59551C5.20222 8.61668 8.48035 11.8728 12.5205 11.8728C13.0475 11.8728 13.5606 11.8178 14.0536 11.7128C14.2047 11.6801 14.3621 11.6926 14.5062 11.7488C14.6503 11.805 14.7746 11.9024 14.8636 12.0288C14.9576 12.1603 15.0055 12.3191 14.9999 12.4806C14.9943 12.6421 14.9355 12.7972 14.8326 12.9219C14.0483 13.8853 13.0588 14.6616 11.9363 15.1941C10.8139 15.7267 9.58672 16.002 8.34435 16C3.73416 16 0 12.2858 0 7.70964C0 4.2655 2.11409 1.31138 5.12421 0.0593244C5.27416 -0.00404638 5.44062 -0.0170529 5.59858 0.0222585C5.75655 0.06157 5.8975 0.151077 6.00025 0.277334V0.277334Z" fill="black"/>
<path d="M10.7939 3.14761C10.8083 3.1043 10.8359 3.06662 10.8729 3.03991C10.9099 3.01319 10.9543 2.99882 10.9999 2.99882C11.0456 2.99882 11.09 3.01319 11.127 3.03991C11.164 3.06662 11.1916 3.1043 11.2059 3.14761L11.593 4.30966C11.766 4.82768 12.172 5.2337 12.69 5.4067L13.8521 5.79372C13.8954 5.80806 13.933 5.83569 13.9598 5.87267C13.9865 5.90965 14.0008 5.95411 14.0008 5.99973C14.0008 6.04535 13.9865 6.08981 13.9598 6.12679C13.933 6.16377 13.8954 6.1914 13.8521 6.20574L12.69 6.59275C12.4345 6.67787 12.2024 6.82133 12.012 7.01175C11.8215 7.20216 11.6781 7.43431 11.593 7.6898L11.2059 8.85185C11.1916 8.89516 11.164 8.93284 11.127 8.95955C11.09 8.98626 11.0456 9.00064 10.9999 9.00064C10.9543 9.00064 10.9099 8.98626 10.8729 8.95955C10.8359 8.93284 10.8083 8.89516 10.7939 8.85185L10.4069 7.6898C10.3218 7.43431 10.1783 7.20216 9.98792 7.01175C9.7975 6.82133 9.56535 6.67787 9.30987 6.59275L8.14782 6.20574C8.10451 6.1914 8.06682 6.16377 8.04011 6.12679C8.0134 6.08981 7.99902 6.04535 7.99902 5.99973C7.99902 5.95411 8.0134 5.90965 8.04011 5.87267C8.06682 5.83569 8.10451 5.80806 8.14782 5.79372L9.30987 5.4067C9.56535 5.32158 9.7975 5.17813 9.98792 4.98771C10.1783 4.79729 10.3218 4.56514 10.4069 4.30966L10.7939 3.14761V3.14761ZM13.8631 0.0984833C13.8729 0.0700084 13.8914 0.045317 13.916 0.0278419C13.9405 0.0103669 13.9699 0.000976562 14.0001 0.000976562C14.0302 0.000976563 14.0596 0.0103669 14.0841 0.0278419C14.1087 0.045317 14.1272 0.0700084 14.1371 0.0984833L14.3951 0.872516C14.5101 1.21853 14.7811 1.48954 15.1271 1.60455L15.9011 1.86256C15.9296 1.87243 15.9543 1.89093 15.9718 1.91548C15.9893 1.94004 15.9986 1.96942 15.9986 1.99956C15.9986 2.0297 15.9893 2.05909 15.9718 2.08364C15.9543 2.1082 15.9296 2.1267 15.9011 2.13657L15.1271 2.39458C14.9566 2.4513 14.8016 2.547 14.6746 2.67407C14.5475 2.80114 14.4518 2.95609 14.3951 3.12661L14.1371 3.90064C14.1272 3.92912 14.1087 3.95381 14.0841 3.97128C14.0596 3.98876 14.0302 3.99815 14.0001 3.99815C13.9699 3.99815 13.9405 3.98876 13.916 3.97128C13.8914 3.95381 13.8729 3.92912 13.8631 3.90064L13.605 3.12661C13.5483 2.95609 13.4526 2.80114 13.3256 2.67407C13.1985 2.547 13.0435 2.4513 12.873 2.39458L12.099 2.13657C12.0705 2.1267 12.0458 2.1082 12.0283 2.08364C12.0109 2.05909 12.0015 2.0297 12.0015 1.99956C12.0015 1.96942 12.0109 1.94004 12.0283 1.91548C12.0458 1.89093 12.0705 1.87243 12.099 1.86256L12.873 1.60455C13.219 1.48954 13.49 1.21853 13.605 0.872516L13.8631 0.0994833V0.0984833Z" fill="black"/>
</svg>
